<svg xmlns="http://www.w3.org/2000/svg" width="739.945" height="172.263" viewBox="0 0 739.945 172.263">
  <g id="Grupo_69" data-name="Grupo 69" transform="translate(-193.269 -419.748)">
    <g id="Grupo_67" data-name="Grupo 67">
      <path id="Trazado_122" data-name="Trazado 122" d="M362.1,526.324l11.75-86.656a37.2,37.2,0,0,0,7.894.735,41.348,41.348,0,0,0,8.077-.735c13.588,29.926,27.724,58.384,42.41,85.739q22.034-41.032,41.86-85.739a45.122,45.122,0,0,0,8.445.735,43.8,43.8,0,0,0,8.445-.735l10.465,87.759c1.654,13.585,3.3,26.252,5.875,37.636a151.118,151.118,0,0,0-15.605-.919,138.522,138.522,0,0,0-15.237.919c-.553-12.3-.919-20.93-1.469-25.7l-5.875-58.566c-14.871,28.456-28.64,56.546-41.676,84.27a13.787,13.787,0,0,0-3.855-.366,12.539,12.539,0,0,0-3.673.366c-14.136-29.925-27.722-56.915-40.941-81.331l-4.406,38.186c-1.835,16.34-3.489,30.66-3.489,43.145a36.6,36.6,0,0,0-7.526-.919,35.165,35.165,0,0,0-7.529.919C359.349,544.683,361.369,531.648,362.1,526.324Z" fill="#003d79"/>
      <path id="Trazado_123" data-name="Trazado 123" d="M536.2,566.582c-11.29,0-17.986-6.957-17.986-18.248,0-8.4,4.464-13.521,13.785-16.673,8.138-2.757,15.491-4.2,20.741-7.745a13.422,13.422,0,0,0,.132-2.231c0-8.008-4.988-13-12.471-13-5.907,0-10.633,3.282-14.7,10.108-.787-2.495-1.706-5.382-2.887-8.4,7.613-6.7,15.1-9.978,23.368-9.978,15.752,0,24.416,7.483,24.416,21.005v.657l-.394,22.842v2.495c0,9.32.919,12.6,8.665,12.6h.394V563.3a37.13,37.13,0,0,1-13.785,2.887c-6.17,0-10.371-3.151-11.814-9.451A19.583,19.583,0,0,1,536.2,566.582Zm-.264-19.956c0,7.484,2.759,11.291,8.14,11.291,5.645,0,9.059-4.069,9.059-12.209V530.48C541.183,532.844,535.931,537.438,535.931,546.626Z" fill="#003d79"/>
      <path id="Trazado_124" data-name="Trazado 124" d="M606.959,571.045c0,9.846.264,10.99.789,20.966a52.385,52.385,0,0,0-9.977-.919,46.252,46.252,0,0,0-9.453.919,246,246,0,0,0,.919-24.774c0-27.961-.262-49.621-.919-65.112a75.343,75.343,0,0,0,9.321.525,69.851,69.851,0,0,0,9.059-.525v8.138c5.119-6.694,11.158-9.714,19.3-9.714,14.964,0,25.073,12.866,25.073,33.082,0,21-9.977,32.951-26.124,32.951-8.795,0-14.44-2.757-17.986-9.191Zm12.473-12.735c9.057,0,12.339-7.744,12.339-24.416,0-16.41-3.676-24.55-12.734-24.55-8.27,0-12.339,8.272-12.339,24.55C606.7,550.3,610.505,558.31,619.432,558.31Z" fill="#003d79"/>
      <path id="Trazado_125" data-name="Trazado 125" d="M678.515,566.582c-11.29,0-17.986-6.957-17.986-18.248,0-8.4,4.464-13.521,13.785-16.673,8.138-2.757,15.491-4.2,20.741-7.745a13.527,13.527,0,0,0,.131-2.231c0-8.008-4.988-13-12.471-13-5.907,0-10.632,3.282-14.7,10.108-.787-2.495-1.706-5.382-2.887-8.4,7.613-6.7,15.1-9.978,23.368-9.978,15.752,0,24.416,7.483,24.416,21.005v.657l-.394,22.842v2.495c0,9.32.919,12.6,8.665,12.6h.394V563.3a37.13,37.13,0,0,1-13.785,2.887c-6.17,0-10.371-3.151-11.814-9.451A19.583,19.583,0,0,1,678.515,566.582Zm-.264-19.956c0,7.484,2.758,11.291,8.14,11.291,5.645,0,9.059-4.069,9.059-12.209V530.48C683.5,532.844,678.251,537.438,678.251,546.626Z" fill="#003d79"/>
      <path id="Trazado_126" data-name="Trazado 126" d="M729.851,509.738c-2.1,0-4.2,0-6.564.132a15.165,15.165,0,0,0,.393-3.414,16.055,16.055,0,0,0-.393-3.412c2.757.262,5.251.525,7.483.525h1.444c.132-1.708.132-3.413.132-5.119a122.252,122.252,0,0,0-.657-12.6,170.416,170.416,0,0,0,17.722-7.615l1.444,1.051c-.525,9.976-.787,16.672-.787,20.215v4.071c4.2,0,8.4-.132,12.733-.525a32.631,32.631,0,0,0-.262,3.412,30.155,30.155,0,0,0,.262,3.414c-3.019-.132-7.351-.132-13-.132-.261,8.4-.525,15.754-.525,22.318v5.25c0,16.016.264,22.055,7.221,22.055a31.927,31.927,0,0,0,7.615-1.312v4.858c-5.383,2.361-10.24,3.675-15.1,3.675-11.158,0-17.2-6.038-17.2-17.329,0-4.071.394-14.965.394-32.558v-6.957Z" fill="#003d79"/>
      <path id="Trazado_127" data-name="Trazado 127" d="M773.833,516.04c0-17.329-.262-33.739-1.049-49.491a60.816,60.816,0,0,0,9.714.919,62.455,62.455,0,0,0,9.846-.919c-.789,16.41-1.051,32.82-1.051,48.966,0,17.329.262,33.738,1.051,49.491a47.772,47.772,0,0,0-9.716-.919,51.824,51.824,0,0,0-9.844.919C773.571,548.6,773.833,532.186,773.833,516.04Z" fill="#003d79"/>
      <path id="Trazado_128" data-name="Trazado 128" d="M822.934,566.582c-11.29,0-17.986-6.957-17.986-18.248,0-8.4,4.465-13.521,13.785-16.673,8.138-2.757,15.491-4.2,20.741-7.745a13.422,13.422,0,0,0,.132-2.231c0-8.008-4.988-13-12.471-13-5.907,0-10.633,3.282-14.7,10.108-.787-2.495-1.706-5.382-2.887-8.4,7.613-6.7,15.1-9.978,23.368-9.978,15.752,0,24.416,7.483,24.416,21.005v.657l-.393,22.842v2.495c0,9.32.918,12.6,8.663,12.6h.395V563.3a37.13,37.13,0,0,1-13.785,2.887c-6.17,0-10.371-3.151-11.815-9.451A19.58,19.58,0,0,1,822.934,566.582Zm15.885-92.55c3.282-3.414,5.906-5.646,9.32-5.646a6.141,6.141,0,0,1,6.3,6.3c0,3.152-1.967,4.989-6.038,7.089L826.084,493.46h-6.038Zm-16.148,72.594c0,7.484,2.758,11.291,8.14,11.291,5.644,0,9.058-4.069,9.058-12.209V530.48C827.922,532.844,822.671,537.438,822.671,546.626Z" fill="#003d79"/>
      <path id="Trazado_129" data-name="Trazado 129" d="M875.846,533.631c0-11.291-.4-21.792-1.05-31.506a69.81,69.81,0,0,0,9.057.525,64.609,64.609,0,0,0,8.8-.525v9.189c5.381-7.09,11.945-10.5,20.215-10.5,6.564,0,11.947,2.361,15.491,6.432,3.939,4.594,4.069,10.765,4.069,19.166,0,3.544-.13,9.057-.13,16.41,0,7.613.262,14.964.919,22.185a82.846,82.846,0,0,0-9.846-.657,80.657,80.657,0,0,0-9.714.657c.655-7.089,1.049-17.329,1.049-30.587,0-15.491-.919-22.58-10.5-22.58-8.534,0-11.159,7.089-11.159,21.66,0,7.352.262,17.854.919,31.507a78.5,78.5,0,0,0-9.584-.657,76.728,76.728,0,0,0-9.582.657C875.451,554.241,875.846,543.87,875.846,533.631Z" fill="#003d79"/>
    </g>
    <g id="Grupo_68" data-name="Grupo 68">
      <path id="Trazado_130" data-name="Trazado 130" d="M193.269,485.9v65.694a13.765,13.765,0,0,0,13.764,13.764H250.3a3.842,3.842,0,0,0,3.122-6.08l-54-75.353A3.391,3.391,0,0,0,193.269,485.9Z" fill="#d59f0f"/>
      <path id="Trazado_131" data-name="Trazado 131" d="M338.878,485.9v65.694a13.764,13.764,0,0,1-13.764,13.764H281.85a3.842,3.842,0,0,1-3.123-6.08l54-75.353A3.391,3.391,0,0,1,338.878,485.9Z" fill="#d59f0f"/>
      <path id="Trazado_132" data-name="Trazado 132" d="M311.7,465.372a45.623,45.623,0,1,0-80.11,29.849h-.017l34.5,47.223,34.5-47.223h-.017A45.43,45.43,0,0,0,311.7,465.372Zm-45.623,22.674A22.766,22.766,0,1,1,288.84,465.28,22.765,22.765,0,0,1,266.074,488.046Z" fill="#003d79"/>
    </g>
  </g>
</svg>
