<svg xmlns="http://www.w3.org/2000/svg" width="437.752" height="437.759" viewBox="0 0 437.752 437.759">
  <g id="Grupo_75" data-name="Grupo 75" transform="translate(-43.279 -133.275)">
    <path id="Trazado_135" data-name="Trazado 135" d="M481.03,352.832A218.877,218.877,0,1,1,262.541,133.275,218.388,218.388,0,0,1,481.03,352.832ZM263.389,176.524C167.463,175.18,88.213,253.19,86.527,350.615c-1.657,95.761,76.253,175.178,173.8,177.16,96.02,1.95,176.36-77.128,177.467-174.68C438.882,257.093,360.648,177.886,263.389,176.524Z" transform="translate(0 0)" fill="#d59f0f"/>
    <path id="Trazado_136" data-name="Trazado 136" d="M322.941,395.518H280.926V265.891h42.015Z" transform="translate(-39.66 -22.132)" fill="#d59f0f"/>
    <path id="Trazado_137" data-name="Trazado 137" d="M323.083,476.694v41.268H280.628V476.694Z" transform="translate(-39.611 -57.313)" fill="#d59f0f"/>
  </g>
</svg>
